<svg width="696" height="566" viewBox="0 0 696 566" fill="none" xmlns="http://www.w3.org/2000/svg">
<g filter="url(#filter0_f_15_439)">
<rect width="400" height="417.347" rx="28" transform="matrix(-0.999229 -0.0392598 0.364601 0.937986 471.886 95.2961)" fill="white" fill-opacity="0.4"/>
</g>
<path d="M553.438 81.2491C548.055 66.7522 531.166 54.5079 515.713 53.9008L175.691 30.5C160.239 29.8929 148.364 51.0482 153.747 65.5452L280.448 406.782C285.831 421.279 302.721 433.523 318.173 434.13L661.908 447.636C677.36 448.243 692.074 428.997 686.691 414.5L553.438 81.2491Z" fill="#D9D9D9"/>
<g clip-path="url(#clip0_15_439)">
<rect width="400" height="420" rx="28" transform="matrix(-0.999229 -0.0392598 0.348081 0.937464 549.691 45)" fill="white"/>
<path d="M538.191 82C533.578 69.5741 516.724 65.6494 503.479 65.129L211 46C197.755 45.4796 191.463 62.7961 196.077 75.222C200.691 87.648 215.168 98.1431 228.412 98.6634L520.187 110.127C533.432 110.648 542.805 94.426 538.191 82Z" fill="#D9D9D9"/>
<g filter="url(#filter1_f_15_439)">
<rect width="340" height="48" rx="24" transform="matrix(-0.999229 -0.0392598 0.348081 0.937464 527.461 84.0712)" fill="#D9D9D9"/>
</g>
<rect x="-0.325574" y="0.449102" width="339" height="47" rx="23.5" transform="matrix(-0.999229 -0.0392598 0.348081 0.937464 528.654 58.0865)" fill="white"/>
<rect x="-0.325574" y="0.449102" width="339" height="47" rx="23.5" transform="matrix(-0.999229 -0.0392598 0.348081 0.937464 528.654 58.0865)" stroke="#9EE1FF"/>
<g clip-path="url(#clip1_15_439)">
<path d="M507.838 79.3925C506.85 79.3537 505.782 79.0408 504.769 78.4935C503.756 77.9462 502.844 77.189 502.148 76.3176C501.452 75.4462 501.003 74.4999 500.858 73.5982C500.713 72.6965 500.879 71.88 501.334 71.252C501.79 70.6239 502.514 70.2124 503.416 70.0696C504.318 69.9269 505.357 70.0592 506.402 70.4498C507.446 70.8404 508.45 71.4719 509.285 72.2643C510.12 73.0567 510.75 73.9744 511.094 74.9015C511.554 76.1442 511.47 77.315 510.859 78.157C510.249 78.999 509.162 79.4433 507.838 79.3925ZM504.938 71.5803C504.279 71.5544 503.703 71.7124 503.283 72.0342C502.862 72.3561 502.617 72.8274 502.577 73.3885C502.536 73.9495 502.704 74.5753 503.057 75.1865C503.411 75.7977 503.935 76.367 504.563 76.8223C505.191 77.2776 505.895 77.5985 506.586 77.7445C507.277 77.8905 507.924 77.8549 508.444 77.6423C508.965 77.4297 509.337 77.0496 509.512 76.5501C509.687 76.0506 509.658 75.4541 509.429 74.8361C509.121 74.0073 508.475 73.1987 507.633 72.5881C506.79 71.9775 505.821 71.615 504.938 71.5803Z" fill="#9EE1FF"/>
<path d="M508.418 80.9555C510.406 81.0356 512.586 81.8519 514.481 83.2252C516.375 84.5985 517.829 86.4167 518.523 88.2809C518.6 88.4881 518.586 88.6834 518.484 88.8237C518.383 88.9641 518.201 89.0381 517.981 89.0294C517.76 89.0207 517.517 88.9301 517.307 88.7775C517.096 88.6248 516.935 88.4227 516.858 88.2155C516.319 86.7651 515.189 85.3501 513.715 84.2816C512.241 83.2131 510.544 82.5787 508.999 82.5179C507.453 82.4572 506.184 82.9751 505.472 83.9577C504.759 84.9403 504.662 86.3071 505.2 87.7575C505.277 87.9647 505.263 88.1599 505.161 88.3003C505.06 88.4407 504.878 88.5146 504.658 88.506C504.437 88.4973 504.194 88.4067 503.984 88.254C503.773 88.1014 503.612 87.8992 503.535 87.692C502.845 85.828 502.972 84.0719 503.887 82.809C504.803 81.5461 506.432 80.8795 508.418 80.9555Z" fill="#9EE1FF"/>
</g>
<path d="M431.691 191.5L404.031 124.39C402.493 120.248 397.668 116.75 393.253 116.576L227.191 105C223.163 104.842 222.673 115.154 226.68 117.669C234.053 122.295 242.656 128.372 248.285 134.537C256.898 143.97 265.443 173.629 269.286 188.337C270.459 192.824 275.682 196.946 280.511 197.135L425.276 202.823C429.691 202.997 433.229 195.642 431.691 191.5Z" fill="#D9D9D9"/>
<g filter="url(#filter2_f_15_439)">
<path d="M430.485 220.638L404.031 149.39C402.493 145.248 397.668 141.75 393.253 141.576L226.492 135.024C222.463 134.866 222.673 140.154 226.68 142.669C234.053 147.295 242.656 153.372 248.285 159.537C256.898 168.97 265.443 198.629 269.286 213.337C270.459 217.824 275.682 221.946 280.511 222.135L425.276 227.823C429.691 227.997 432.023 224.78 430.485 220.638Z" fill="#D9D9D9"/>
</g>
<path d="M431.485 190.638L405.031 119.39C403.493 115.248 398.668 111.75 394.253 111.576L227.492 105.024C223.463 104.866 223.673 110.154 227.68 112.669C235.053 117.295 243.656 123.372 249.285 129.537C257.898 138.97 266.443 168.629 270.286 183.337C271.459 187.824 276.682 191.946 281.511 192.135L426.276 197.823C430.691 197.997 433.023 194.78 431.485 190.638Z" fill="#9EE1FF"/>
<path d="M413.191 161C411.269 155.823 405.095 154.649 399.577 154.432L317.692 147.5C312.173 147.283 311.204 155.096 313.127 160.274C315.049 165.451 321.081 169.824 326.6 170.041L406.538 173.182C412.057 173.398 415.114 166.177 413.191 161Z" fill="#D9D9D9"/>
<rect width="100" height="20" rx="10" transform="matrix(-0.999229 -0.0392598 0.348081 0.937464 409.568 150.825)" fill="white"/>
<path d="M403.191 135C401.269 129.823 394.348 127.4 388.829 127.183L289.191 120.5C283.673 120.283 280.473 127.062 282.395 132.239C284.317 137.417 290.35 141.79 295.868 142.007L395.791 145.933C401.31 146.149 405.114 140.177 403.191 135Z" fill="#D9D9D9"/>
<rect width="120" height="20" rx="10" transform="matrix(-0.999229 -0.0392598 0.348081 0.937464 399.822 124.576)" fill="white"/>
<path d="M425.538 289.392L406.046 236.894C404.563 232.9 402.82 225.549 408.975 224.132C409.446 224.024 409.934 224.01 410.417 224.028L575.691 230.5C579.94 230.667 582.818 238.346 580.191 240.5C576.676 243.381 573.41 250.905 572.112 254.542C569.754 261.154 580.591 278.352 586.691 290.5C589.015 295.127 586.137 300.194 581.191 300L436.691 295C432.276 294.827 427.076 293.534 425.538 289.392Z" fill="#D9D9D9"/>
<g filter="url(#filter3_f_15_439)">
<path d="M425.538 309.392L406.046 256.894C404.563 252.9 402.82 245.549 408.975 244.132C409.446 244.024 409.934 244.01 410.417 244.028L575.691 250.5C579.94 250.667 582.818 258.346 580.191 260.5C576.676 263.381 573.41 270.905 572.112 274.542C569.754 281.154 580.591 298.352 586.691 310.5C589.015 315.127 586.137 320.194 581.191 320L436.691 315C432.276 314.827 427.076 313.534 425.538 309.392Z" fill="#D9D9D9"/>
</g>
<path d="M425.538 283.392L406.046 230.894C404.508 226.752 406.84 223.535 411.255 223.709L574.633 230.128C578.882 230.295 582.806 236.411 580.179 238.564C576.664 241.446 573.41 244.905 572.112 248.543C569.754 255.154 579.509 276.285 585.61 288.433C587.933 293.061 585.691 297.075 580.746 296.881L436.317 291.206C431.902 291.033 427.076 287.534 425.538 283.392Z" fill="#9EE1FF"/>
<path d="M544.191 249.5C542.269 244.323 535.255 243.401 529.736 243.184L430.691 235.5C423.302 235 421.38 243.062 423.302 248.24C425.224 253.417 431.256 257.79 436.775 258.007L536.698 261.933C542.217 262.15 546.114 254.677 544.191 249.5Z" fill="#D9D9D9"/>
<rect width="120" height="20" rx="10" transform="matrix(-0.999229 -0.0392598 0.348081 0.937464 540.729 239.576)" fill="white"/>
<path d="M640.191 364.5C635.193 351.039 617.469 345.354 603.121 344.79L375.691 330C361.343 329.436 353.368 345.731 358.367 359.192C363.365 372.654 379.048 384.023 393.397 384.587L621.221 393.538C635.569 394.102 645.19 377.961 640.191 364.5Z" fill="#D9D9D9"/>
<g filter="url(#filter4_f_15_439)">
<rect width="280" height="52" rx="26" transform="matrix(-0.999229 -0.0392598 0.348081 0.937464 627.101 365.811)" fill="#D9D9D9"/>
</g>
<rect width="280" height="52" rx="26" transform="matrix(-0.999229 -0.0392598 0.348081 0.937464 631.101 339.811)" fill="#9EE1FF"/>
<g clip-path="url(#clip2_15_439)">
<path d="M322.386 352.565L326.781 355.751C328.048 356.653 329.497 357.183 330.814 357.226C332.132 357.27 333.212 356.824 333.82 355.984C334.429 355.145 334.517 353.98 334.067 352.742C333.616 351.503 332.662 350.29 331.412 349.366L327.016 346.177C326.763 345.994 326.569 345.751 326.477 345.503C326.385 345.254 326.401 345.02 326.524 344.851C326.646 344.683 326.864 344.594 327.129 344.605C327.394 344.615 327.685 344.724 327.937 344.907L332.332 348.096C334.108 349.384 335.47 351.089 336.118 352.836C336.766 354.584 336.648 356.23 335.79 357.414C334.931 358.598 333.402 359.221 331.539 359.147C329.676 359.074 327.632 358.309 325.857 357.021L321.462 353.835C321.214 353.651 321.026 353.411 320.937 353.165C320.848 352.919 320.865 352.688 320.986 352.522C321.107 352.355 321.321 352.266 321.582 352.275C321.843 352.283 322.131 352.387 322.383 352.565L322.386 352.565Z" fill="#9EE1FF"/>
<path d="M309 337.993C309.422 337.404 310.015 336.948 310.744 336.649C311.473 336.351 312.324 336.217 313.247 336.256C314.169 336.29 315.145 336.495 316.12 336.859C317.095 337.224 318.049 337.74 318.928 338.379L323.328 341.566C323.581 341.75 323.775 341.992 323.867 342.241C323.959 342.49 323.943 342.724 323.821 342.892C323.699 343.061 323.481 343.15 323.216 343.14C322.951 343.129 322.66 343.021 322.407 342.837L318.01 339.651C317.381 339.194 316.699 338.824 316.001 338.563C315.304 338.302 314.605 338.155 313.946 338.131C312.952 338.092 312.084 338.331 311.45 338.816C310.817 339.302 310.446 340.013 310.386 340.859C310.326 341.705 310.578 342.649 311.111 343.57C311.645 344.492 312.435 345.351 313.382 346.038L317.777 349.224C318.03 349.407 318.224 349.65 318.316 349.898C318.408 350.147 318.392 350.382 318.269 350.55C318.147 350.719 317.93 350.807 317.664 350.797C317.399 350.787 317.108 350.678 316.855 350.495L312.461 347.31C310.687 346.022 309.326 344.318 308.677 342.571C308.029 340.825 308.144 339.178 309 337.993Z" fill="#9EE1FF"/>
<path d="M318.814 344.135L326.898 349.995C327.025 350.086 327.14 350.192 327.235 350.309C327.329 350.425 327.403 350.549 327.45 350.674C327.497 350.798 327.518 350.921 327.511 351.034C327.503 351.147 327.468 351.249 327.407 351.333C327.345 351.417 327.26 351.483 327.154 351.525C327.049 351.567 326.926 351.586 326.793 351.58C326.66 351.573 326.52 351.542 326.379 351.488C326.239 351.434 326.102 351.359 325.977 351.266L317.893 345.405C317.645 345.221 317.457 344.98 317.368 344.735C317.279 344.489 317.297 344.258 317.417 344.092C317.538 343.925 317.752 343.836 318.013 343.844C318.275 343.853 318.562 343.957 318.814 344.135Z" fill="#9EE1FF"/>
</g>
<g clip-path="url(#clip3_15_439)" filter="url(#filter5_f_15_439)">
<path d="M322.386 362.565L326.781 365.751C328.048 366.653 329.497 367.183 330.814 367.226C332.132 367.27 333.212 366.824 333.82 365.984C334.429 365.145 334.517 363.98 334.067 362.742C333.616 361.503 332.662 360.29 331.412 359.366L327.016 356.177C326.763 355.994 326.569 355.751 326.477 355.503C326.385 355.254 326.401 355.02 326.524 354.851C326.646 354.683 326.864 354.594 327.129 354.605C327.394 354.615 327.685 354.724 327.937 354.907L332.332 358.096C334.108 359.384 335.47 361.089 336.118 362.836C336.766 364.584 336.648 366.23 335.79 367.414C334.931 368.598 333.402 369.221 331.539 369.147C329.676 369.074 327.632 368.309 325.857 367.021L321.462 363.835C321.214 363.651 321.026 363.411 320.937 363.165C320.848 362.919 320.865 362.688 320.986 362.522C321.107 362.355 321.321 362.266 321.582 362.275C321.843 362.283 322.131 362.387 322.383 362.565L322.386 362.565Z" fill="#9EE1FF"/>
<path d="M309 347.993C309.422 347.404 310.015 346.948 310.744 346.649C311.473 346.351 312.324 346.217 313.247 346.256C314.169 346.29 315.145 346.495 316.12 346.859C317.095 347.224 318.049 347.74 318.928 348.379L323.328 351.566C323.581 351.75 323.775 351.992 323.867 352.241C323.959 352.49 323.943 352.724 323.821 352.892C323.699 353.061 323.481 353.15 323.216 353.14C322.951 353.129 322.66 353.021 322.407 352.837L318.01 349.651C317.381 349.194 316.699 348.824 316.001 348.563C315.304 348.302 314.605 348.155 313.946 348.131C312.952 348.092 312.084 348.331 311.45 348.816C310.817 349.302 310.446 350.013 310.386 350.859C310.326 351.705 310.578 352.649 311.111 353.57C311.645 354.492 312.435 355.351 313.382 356.038L317.777 359.224C318.03 359.407 318.224 359.65 318.316 359.898C318.408 360.147 318.392 360.382 318.269 360.55C318.147 360.719 317.93 360.807 317.664 360.797C317.399 360.787 317.108 360.678 316.855 360.495L312.461 357.31C310.687 356.022 309.326 354.318 308.677 352.571C308.029 350.825 308.144 349.178 309 347.993Z" fill="#9EE1FF"/>
<path d="M318.814 354.135L326.898 359.996C327.025 360.086 327.14 360.192 327.235 360.309C327.329 360.425 327.403 360.549 327.45 360.674C327.497 360.798 327.518 360.921 327.511 361.034C327.503 361.147 327.468 361.249 327.407 361.333C327.345 361.418 327.26 361.483 327.154 361.525C327.049 361.567 326.926 361.586 326.793 361.58C326.66 361.573 326.52 361.542 326.379 361.488C326.239 361.434 326.102 361.359 325.977 361.266L317.893 355.405C317.645 355.221 317.457 354.981 317.368 354.735C317.279 354.489 317.297 354.258 317.417 354.092C317.538 353.925 317.752 353.836 318.013 353.844C318.275 353.853 318.562 353.957 318.814 354.135Z" fill="#9EE1FF"/>
</g>
</g>
<rect x="-0.325574" y="0.449102" width="399" height="419" rx="27.5" transform="matrix(-0.999229 -0.0392598 0.348081 0.937464 548.884 45.0153)" stroke="#9EE1FF"/>
<defs>
<filter id="filter0_f_15_439" x="0.590332" y="0.667999" width="695.064" height="565.018" filterUnits="userSpaceOnUse" color-interpolation-filters="sRGB">
<feFlood flood-opacity="0" result="BackgroundImageFix"/>
<feBlend mode="normal" in="SourceGraphic" in2="BackgroundImageFix" result="shape"/>
<feGaussianBlur stdDeviation="40" result="effect1_foregroundBlur_15_439"/>
</filter>
<filter id="filter1_f_15_439" x="154.657" y="31.645" width="422.579" height="136.502" filterUnits="userSpaceOnUse" color-interpolation-filters="sRGB">
<feFlood flood-opacity="0" result="BackgroundImageFix"/>
<feBlend mode="normal" in="SourceGraphic" in2="BackgroundImageFix" result="shape"/>
<feGaussianBlur stdDeviation="20" result="effect1_foregroundBlur_15_439"/>
</filter>
<filter id="filter2_f_15_439" x="183.571" y="95.021" width="287.388" height="172.809" filterUnits="userSpaceOnUse" color-interpolation-filters="sRGB">
<feFlood flood-opacity="0" result="BackgroundImageFix"/>
<feBlend mode="normal" in="SourceGraphic" in2="BackgroundImageFix" result="shape"/>
<feGaussianBlur stdDeviation="20" result="effect1_foregroundBlur_15_439"/>
</filter>
<filter id="filter3_f_15_439" x="364.628" y="204.021" width="262.88" height="155.984" filterUnits="userSpaceOnUse" color-interpolation-filters="sRGB">
<feFlood flood-opacity="0" result="BackgroundImageFix"/>
<feBlend mode="normal" in="SourceGraphic" in2="BackgroundImageFix" result="shape"/>
<feGaussianBlur stdDeviation="20" result="effect1_foregroundBlur_15_439"/>
</filter>
<filter id="filter4_f_15_439" x="314.828" y="315.817" width="362.861" height="137.743" filterUnits="userSpaceOnUse" color-interpolation-filters="sRGB">
<feFlood flood-opacity="0" result="BackgroundImageFix"/>
<feBlend mode="normal" in="SourceGraphic" in2="BackgroundImageFix" result="shape"/>
<feGaussianBlur stdDeviation="20" result="effect1_foregroundBlur_15_439"/>
</filter>
<filter id="filter5_f_15_439" x="302.228" y="341.98" width="40.3354" height="31.4414" filterUnits="userSpaceOnUse" color-interpolation-filters="sRGB">
<feFlood flood-opacity="0" result="BackgroundImageFix"/>
<feBlend mode="normal" in="SourceGraphic" in2="BackgroundImageFix" result="shape"/>
<feGaussianBlur stdDeviation="2" result="effect1_foregroundBlur_15_439"/>
</filter>
<clipPath id="clip0_15_439">
<rect width="400" height="420" rx="28" transform="matrix(-0.999229 -0.0392598 0.348081 0.937464 549.691 45)" fill="white"/>
</clipPath>
<clipPath id="clip1_15_439">
<rect width="20" height="20" fill="white" transform="matrix(-0.999229 -0.0392598 0.348081 0.937464 514.35 70.4105)"/>
</clipPath>
<clipPath id="clip2_15_439">
<rect width="24" height="24" fill="white" transform="matrix(-0.999229 -0.0392598 0.348081 0.937464 330.209 336.922)"/>
</clipPath>
<clipPath id="clip3_15_439">
<rect width="24" height="24" fill="white" transform="matrix(-0.999229 -0.0392598 0.348081 0.937464 330.209 346.922)"/>
</clipPath>
</defs>
</svg>
