<svg width="371" height="72" viewBox="0 0 371 72" fill="none" xmlns="http://www.w3.org/2000/svg">
<path d="M40.8351 67.7359C39.5896 68.8363 37.8992 69.7075 35.7641 70.3494C33.6289 71.083 31.0934 71.4498 28.1575 71.4498C24.51 71.4498 21.3517 70.8996 18.6827 69.7992C16.0138 68.7905 14.2345 67.3232 13.3448 65.3975C12.3662 63.1967 11.2096 59.7121 9.87515 54.9436C8.62964 50.1751 7.38412 44.9482 6.13861 39.2627C4.89309 33.5773 3.69206 27.8001 2.53551 21.9312C1.46793 16.0624 0.622757 10.8813 0 6.3879C1.24551 5.10408 2.89137 4.00367 4.93758 3.08666C7.07275 2.07795 9.38585 1.5736 11.8769 1.5736C14.9907 1.5736 17.5262 2.3072 19.4834 3.77442C21.5296 5.14994 22.7751 7.58001 23.22 11.0647C24.1096 18.0339 24.8658 23.8111 25.4886 28.3962C26.1113 32.8895 26.6006 36.6034 26.9565 39.5378C27.4013 42.3806 27.7127 44.5814 27.8906 46.1403C28.1575 47.6075 28.3799 48.7996 28.5579 49.7166H29.0917C29.3586 48.2494 29.8034 46.1403 30.4262 43.3893C31.1379 40.5465 31.9386 37.337 32.8282 33.7607C33.7179 30.1843 34.652 26.3329 35.6306 22.2063C36.6092 17.9881 37.5879 13.8157 38.5665 9.68914C40.3458 8.68043 42.0806 7.90097 43.771 7.35076C45.5503 6.80055 47.7299 6.52545 50.3099 6.52545C53.4237 6.52545 56.0927 7.02981 58.3168 8.03852C60.5409 9.04723 61.9644 10.6061 62.5871 12.7153C63.6547 16.7501 64.6778 20.6933 65.6564 24.5447C66.635 28.3045 67.5247 31.8349 68.3254 35.1362C69.1261 38.3457 69.8378 41.2343 70.4606 43.8019C71.0833 46.2779 71.5281 48.2494 71.795 49.7166H72.4623C73.4409 42.6557 74.375 35.3196 75.2647 27.7084C76.2433 20.0972 77.133 12.3485 77.9337 4.46218C79.535 3.45346 81.2254 2.71986 83.0047 2.26135C84.784 1.80285 86.5633 1.5736 88.3426 1.5736C91.4564 1.5736 94.0364 2.26135 96.0826 3.63687C98.1288 5.01238 99.1519 7.39661 99.1519 10.7895C99.1519 12.2568 98.9295 14.4576 98.4846 17.392C98.0398 20.3265 97.4615 23.6277 96.7498 27.2957C96.0381 30.9638 95.1929 34.8152 94.2143 38.8501C93.3247 42.8849 92.3905 46.7822 91.4119 50.542C90.5222 54.3017 89.6326 57.6946 88.7429 60.7208C87.9423 63.7469 87.2305 66.0853 86.6078 67.7359C85.3623 68.8363 83.4495 69.7075 80.8695 70.3494C78.2895 71.083 75.5316 71.4498 72.5957 71.4498C65.1226 71.4498 60.7188 69.5241 59.3844 65.6726C58.8506 64.022 58.1833 61.9587 57.3827 59.4828C56.582 56.9152 55.7368 54.1183 54.8471 51.0922C53.9575 48.066 53.1123 44.9482 52.3116 41.7386C51.5109 38.4374 50.8437 35.2737 50.3099 32.2476C49.6871 35.4571 48.9309 38.8042 48.0413 42.2889C47.1516 45.6818 46.2175 49.0289 45.2389 52.3301C44.3492 55.5397 43.5041 58.5199 42.7034 61.271C41.9027 63.9303 41.2799 66.0853 40.8351 67.7359Z" fill="#74D4FF"/>
<path d="M126.511 54.9436C128.023 54.9436 129.669 54.806 131.448 54.5309C133.317 54.1641 134.696 53.7056 135.585 53.1554V42.1513L125.977 42.9766C123.486 43.16 121.44 43.7102 119.838 44.6272C118.237 45.5443 117.436 46.9198 117.436 48.7538C117.436 50.5878 118.104 52.1009 119.438 53.293C120.862 54.3934 123.219 54.9436 126.511 54.9436ZM125.443 0.885834C130.247 0.885834 134.607 1.39019 138.521 2.39891C142.525 3.40762 145.905 4.96653 148.663 7.07565C151.51 9.09308 153.69 11.7066 155.202 14.9161C156.715 18.0339 157.471 21.7478 157.471 26.0578V56.8693C157.471 59.2536 156.804 61.2251 155.469 62.784C154.224 64.2513 152.711 65.5351 150.932 66.6355C145.149 70.2118 137.009 72 126.511 72C121.796 72 117.525 71.5415 113.7 70.6245C109.963 69.7075 106.716 68.332 103.958 66.4979C101.289 64.6639 99.1984 62.3255 97.686 59.4828C96.2626 56.6401 95.5509 53.3388 95.5509 49.5791C95.5509 43.2517 97.3747 38.3916 101.022 34.9986C104.67 31.6057 110.319 29.4966 117.97 28.6713L135.452 26.7455V25.7827C135.452 23.1233 134.295 21.2435 131.982 20.1431C129.758 18.9509 126.511 18.3549 122.24 18.3549C118.86 18.3549 115.568 18.7217 112.365 19.4553C109.163 20.1889 106.271 21.1059 103.691 22.2063C102.535 21.381 101.556 20.1431 100.755 18.4924C99.9547 16.7501 99.5543 14.9619 99.5543 13.1279C99.5543 10.7437 100.088 8.86383 101.156 7.48831C102.312 6.0211 104.047 4.78313 106.36 3.77442C108.94 2.76571 111.965 2.0321 115.435 1.5736C118.993 1.11509 122.329 0.885834 125.443 0.885834Z" fill="#74D4FF"/>
<path d="M202.024 68.011C200.778 69.0197 198.954 69.845 196.552 70.4869C194.15 71.1288 191.437 71.4498 188.412 71.4498C184.942 71.4498 181.917 70.9913 179.337 70.0743C176.846 69.1573 175.112 67.69 174.133 65.6726C173.332 64.1137 172.354 61.9587 171.197 59.2077C170.129 56.365 168.973 53.2471 167.727 49.8542C166.482 46.3695 165.192 42.6557 163.857 38.7125C162.523 34.7694 161.233 30.8721 159.987 27.0206C158.831 23.1692 157.763 19.4553 156.785 15.879C155.806 12.3026 155.005 9.13893 154.383 6.3879C155.628 5.10408 157.274 4.00367 159.32 3.08666C161.455 2.07795 163.768 1.5736 166.259 1.5736C169.373 1.5736 171.909 2.26135 173.866 3.63687C175.912 4.92068 177.425 7.39661 178.403 11.0647L183.608 32.11C184.586 36.2366 185.52 39.9963 186.41 43.3893C187.3 46.6905 187.967 49.2581 188.412 51.0922H189.079C190.769 44.3063 192.549 36.7868 194.417 28.5337C196.285 20.2806 197.976 12.1651 199.488 4.18707C201 3.36176 202.691 2.71986 204.559 2.26135C206.516 1.80285 208.385 1.5736 210.164 1.5736C213.278 1.5736 215.902 2.26135 218.037 3.63687C220.172 5.01238 221.24 7.39661 221.24 10.7895C221.24 12.2568 220.884 14.4117 220.172 17.2545C219.55 20.0055 218.705 23.1692 217.637 26.7455C216.658 30.2302 215.457 33.9441 214.034 37.8872C212.699 41.8304 211.32 45.6818 209.897 49.4415C208.474 53.2013 207.05 56.7318 205.627 60.033C204.292 63.2426 203.091 65.9019 202.024 68.011Z" fill="#74D4FF"/>
<path d="M254.34 72C249.091 72 244.198 71.2664 239.661 69.7992C235.213 68.2403 231.298 65.9477 227.918 62.9216C224.626 59.8955 222.001 56.0899 220.044 51.5048C218.176 46.9198 217.242 41.5553 217.242 35.4113C217.242 29.359 218.176 24.1779 220.044 19.868C222.001 15.4663 224.537 11.89 227.651 9.13893C230.765 6.2962 234.323 4.23292 238.327 2.94911C242.33 1.57359 246.422 0.885834 250.604 0.885834C255.319 0.885834 259.589 1.61944 263.415 3.08666C267.329 4.55388 270.666 6.5713 273.423 9.13893C276.27 11.7066 278.45 14.7785 279.962 18.3549C281.564 21.9312 282.365 25.8285 282.365 30.0468C282.365 33.1646 281.519 35.5488 279.829 37.1995C278.139 38.8501 275.781 39.9046 272.756 40.3631L239.795 45.4525C240.773 48.4787 242.775 50.7712 245.8 52.3301C248.825 53.7973 252.294 54.5309 256.209 54.5309C259.856 54.5309 263.281 54.0725 266.484 53.1554C269.776 52.1467 272.445 51.0005 274.491 49.7166C275.915 50.6337 277.116 51.9175 278.094 53.5681C279.073 55.2187 279.562 56.961 279.562 58.795C279.562 62.9216 277.694 65.9936 273.957 68.011C271.11 69.5699 267.908 70.6245 264.349 71.1747C260.79 71.7249 257.454 72 254.34 72ZM250.604 17.9422C248.469 17.9422 246.6 18.309 244.999 19.0426C243.487 19.7763 242.241 20.7391 241.262 21.9312C240.284 23.0316 239.528 24.3155 238.994 25.7827C238.549 27.1582 238.282 28.5796 238.193 30.0468L261.013 26.1953C260.746 24.3613 259.767 22.5273 258.077 20.6933C256.387 18.8592 253.896 17.9422 250.604 17.9422Z" fill="#74D4FF"/>
<path d="M305.295 69.6616C304.405 69.9367 302.981 70.2118 301.024 70.4869C299.156 70.762 297.199 70.8996 295.153 70.8996C293.195 70.8996 291.416 70.762 289.815 70.4869C288.302 70.2118 287.012 69.6616 285.945 68.8363C284.877 68.011 284.032 66.9106 283.409 65.5351C282.875 64.0679 282.608 62.188 282.608 59.8955V18.63C282.608 16.5209 282.964 14.7327 283.676 13.2655C284.477 11.7066 285.589 10.331 287.012 9.13893C288.436 7.94682 290.17 6.89225 292.217 5.97524C294.352 4.96653 296.62 4.09537 299.023 3.36177C301.425 2.62816 303.916 2.07795 306.496 1.71114C309.076 1.25264 311.656 1.02339 314.236 1.02339C318.506 1.02339 321.887 1.89455 324.378 3.63687C326.869 5.28749 328.114 8.03852 328.114 11.89C328.114 13.1738 327.936 14.4576 327.58 15.7414C327.225 16.9335 326.78 18.0339 326.246 19.0426C324.378 19.0426 322.465 19.1343 320.508 19.3178C318.55 19.5012 316.638 19.7763 314.769 20.1431C312.901 20.5099 311.122 20.9225 309.431 21.381C307.83 21.7478 306.451 22.2063 305.295 22.7565V69.6616Z" fill="#74D4FF"/>
<path d="M348.18 69.6616C347.291 69.9367 345.867 70.2118 343.91 70.4869C342.042 70.762 340.085 70.8996 338.038 70.8996C336.081 70.8996 334.302 70.762 332.7 70.4869C331.188 70.2118 329.898 69.6616 328.83 68.8363C327.763 68.011 326.918 66.9106 326.295 65.5351C325.761 64.0679 325.494 62.188 325.494 59.8955V18.63C325.494 16.5209 325.85 14.7327 326.562 13.2655C327.363 11.7066 328.475 10.331 329.898 9.13893C331.321 7.94682 333.056 6.89225 335.103 5.97524C337.238 4.96653 339.506 4.09537 341.908 3.36177C344.31 2.62816 346.801 2.07795 349.381 1.71114C351.961 1.25264 354.541 1.02339 357.121 1.02339C361.392 1.02339 364.772 1.89455 367.263 3.63687C369.755 5.28749 371 8.03852 371 11.89C371 13.1738 370.822 14.4576 370.466 15.7414C370.11 16.9335 369.666 18.0339 369.132 19.0426C367.263 19.0426 365.351 19.1343 363.393 19.3178C361.436 19.5012 359.523 19.7763 357.655 20.1431C355.787 20.5099 354.008 20.9225 352.317 21.381C350.716 21.7478 349.337 22.2063 348.18 22.7565V69.6616Z" fill="#74D4FF"/>
</svg>
